<?xml version="1.0" encoding="UTF-8"?>
<svg width="34px" height="29px" viewBox="0 0 34 29" version="1.1" xmlns="http://www.w3.org/2000/svg" xmlns:xlink="http://www.w3.org/1999/xlink">
    <!-- Generator: Sketch 47.1 (45422) - http://www.bohemiancoding.com/sketch -->
    <title>ic-debate-home</title>
    <desc>Created with Sketch.</desc>
    <defs>
        <path d="M31.0142802,8.06467504 L29.9578487,11.6005552 C30.1128732,13.5328692 30.1128732,15.1043715 29.9578487,16.3150621 C29.8028243,17.5257527 29.4506805,18.7043795 28.9014173,19.8509423 L23.6192601,25.7440759 C22.3254254,26.3992894 21.268994,26.792165 20.4499658,26.9227027 C20.0243816,26.9905327 18.4894815,26.2653709 16.22424,24.5654492 C14.8281269,23.5177538 12.0109764,21.1605004 7.77278856,17.4936888 C7.52573132,16.1978204 7.52573132,15.4120692 7.77278856,15.1364354 C8.0198458,14.8608015 8.72413342,15.2536771 9.88565143,16.3150621 L13.0549457,18.6723156 L14.1113772,17.4936888 L7.77278856,10.4219285 C7.65681768,9.89494734 7.65681768,9.50207176 7.77278856,9.24330177 C7.88875944,8.98453177 8.24090325,8.5916562 8.82922,8.06467504 L16.22424,15.1364354 C16.7926078,15.2880769 17.1447516,15.2880769 17.2806715,15.1364354 C17.4165914,14.9847939 17.4165914,14.5919184 17.2806715,13.9578087 L9.88565143,4.52879486 C9.76311352,3.2307158 9.76311352,2.44496465 9.88565143,2.17154141 C10.0081893,1.89811817 10.3603332,1.89811817 10.9420829,2.17154141 L19.3935344,11.6005552 C20.5837564,11.7223601 21.288044,11.7223601 21.5063972,11.6005552 C21.7247504,11.4787504 21.7247504,11.0858748 21.5063972,10.4219285 L17.2806715,4.52879486 C16.3505296,3.20927091 15.9983858,2.42351976 16.22424,2.17154141 C16.4500943,1.91956307 17.1543819,1.91956307 18.3371029,2.17154141 L24.6756915,10.4219285 C25.1463128,10.5522755 25.4984566,10.5522755 25.732123,10.4219285 C25.9657893,10.2915815 26.3179331,9.8987059 26.7885544,9.24330177 L28.9014173,5.70742159 C30.0497796,5.41711035 30.7540672,5.41711035 31.0142802,5.70742159 C31.2744931,5.99773284 31.2744931,6.78348399 31.0142802,8.06467504 Z" id="path-1"></path>
        <path d="M24.2264014,6.98775196 L23.1699699,10.5236321 C23.3249944,12.4559461 23.3249944,14.0274484 23.1699699,15.238139 C23.0149455,16.4488297 22.6628017,17.6274564 22.1135385,18.7740192 L16.8313813,24.6671528 C15.5375466,25.3223664 14.4811152,25.7152419 13.662087,25.8457796 C13.2365028,25.9136097 11.7016027,25.1884478 9.43636126,23.4885261 C8.04024812,22.4408307 5.22309763,20.0835773 0.984909772,16.4167658 C0.737852537,15.1208973 0.737852537,14.3351462 0.984909772,14.0595123 C1.23196701,13.7838785 1.93625463,14.176754 3.09777264,15.238139 L6.26706695,17.5953925 L7.32349839,16.4167658 L0.984909772,9.34500542 C0.868938893,8.81802426 0.868938893,8.42514868 0.984909772,8.16637869 C1.10088065,7.9076087 1.45302446,7.51473312 2.04134121,6.98775196 L9.43636126,14.0595123 C10.004729,14.2111538 10.3568728,14.2111538 10.4927927,14.0595123 C10.6287126,13.9078709 10.6287126,13.5149953 10.4927927,12.8808856 L3.09777264,3.45187179 C2.97523474,2.15379273 2.97523474,1.36804158 3.09777264,1.09461834 C3.22031055,0.821195096 3.57245436,0.821195096 4.15420408,1.09461834 L12.6056556,10.5236321 C13.7958776,10.645437 14.5001652,10.645437 14.7185184,10.5236321 C14.9368716,10.4018273 14.9368716,10.0089517 14.7185184,9.34500542 L10.4927927,3.45187179 C9.56265083,2.13234783 9.21050702,1.34659668 9.43636126,1.09461834 C9.6622155,0.842639991 10.3665031,0.842639991 11.5492241,1.09461834 L17.8878127,9.34500542 C18.358434,9.47535244 18.7105779,9.47535244 18.9442442,9.34500542 C19.1779105,9.21465839 19.5300543,8.82178282 20.0006756,8.16637869 L22.1135385,4.63049851 C23.2619008,4.34018727 23.9661884,4.34018727 24.2264014,4.63049851 C24.4866143,4.92080976 24.4866143,5.70656091 24.2264014,6.98775196 Z" id="path-2"></path>
    </defs>
    <g id="Page-1" stroke="none" stroke-width="1" fill="none" fill-rule="evenodd">
        <g id="Desktop-HD" transform="translate(-917.000000, -472.000000)">
            <g id="ic-debate-home" transform="translate(918.000000, 473.000000)">
                <g id="Path-6">
                    <use fill="#08BDA8" fill-rule="evenodd" xlink:href="#path-1"></use>
                    <path stroke="#FFFFFF" stroke-width="1" d="M30.4636609,11.6541992 C30.6137743,13.5756301 30.6112647,15.1488144 30.4537995,16.3785668 C30.2919278,17.6427318 29.9244218,18.8727761 29.3523454,20.0669603 L29.2737441,20.1846678 L23.991587,26.0778014 L23.8451521,26.1901396 C22.5090435,26.8667611 21.4075605,27.2763909 20.5286631,27.4164705 C19.8383819,27.5264884 18.0911234,26.5915593 15.9241281,24.9653652 C14.5154836,23.9082659 11.6928293,21.5464071 7.44564361,17.8718108 L7.31418859,17.758078 L7.28163497,17.5873272 C7.00297807,16.1257117 7.00297807,15.2461697 7.4004617,14.8027099 C7.96031726,14.178097 8.8022776,14.6477711 10.1840516,15.9138672 L12.9871944,17.998785 L13.4399241,17.4936888 L7.31272496,10.6577689 L7.28447314,10.5293903 C7.14758259,9.90734851 7.14758259,9.41576093 7.31651451,9.03881707 C7.47036651,8.69552157 7.85650548,8.26471869 8.49561431,7.69224083 L8.84032403,7.38346919 L16.4745537,14.6839825 C16.7856585,14.7580882 16.9443972,14.7624872 16.9083446,14.8027099 C16.8946619,14.8179753 16.8935585,14.5805855 16.8144541,14.1735669 L9.40165621,4.72188552 L9.38786447,4.57578566 C9.25545703,3.17315586 9.25545703,2.35513146 9.42937738,1.96705672 C9.70997423,1.34095089 10.3503433,1.34095089 11.154764,1.71902982 L11.3144097,1.83781591 L19.6360362,11.1219881 C20.4117868,11.1950495 20.9545556,11.2064222 21.1694373,11.183673 C21.1638923,11.0606863 21.1264489,10.8801418 21.0543313,10.6495146 L16.8719999,4.8168704 C15.7605903,3.24019522 15.3720358,2.37319972 15.8519132,1.83781591 C16.2532821,1.39002144 17.0683925,1.39002144 18.4412895,1.68251671 L18.6214031,1.72088986 L24.9660106,9.97911117 C25.2328537,10.0374015 25.407675,10.030383 25.4885416,9.98527288 C25.6357673,9.90314541 25.9546856,9.54733847 26.3593446,8.98682772 L28.5783172,5.27337266 L28.7788703,5.22267191 C30.1072312,4.88685621 30.9502407,4.88685621 31.386607,5.37369609 C31.7974393,5.83204853 31.7974393,6.72076788 31.504276,8.16419435 L31.4933546,8.20781034 L30.4636609,11.6541992 Z"></path>
                </g>
                <g id="Path-6-Copy">
                    <use fill="#08BDA8" fill-rule="evenodd" xlink:href="#path-2"></use>
                    <path stroke="#FFFFFF" stroke-width="1" d="M23.6757821,10.5772761 C23.8258955,12.4987071 23.8233859,14.0718913 23.6659207,15.3016437 C23.5040491,16.5658087 23.136543,17.795853 22.5644667,18.9900372 L22.4858653,19.1077447 L17.2037082,25.0008784 L17.0572733,25.1132165 C15.7211647,25.789838 14.6196818,26.1994678 13.7407843,26.3395475 C13.0505031,26.4495653 11.3032446,25.5146362 9.13624935,23.8884422 C7.72760484,22.8313428 4.90495055,20.469484 0.657764817,16.7948877 L0.526309802,16.6811549 L0.493756181,16.5104042 C0.215099278,15.0487886 0.215099278,14.1692466 0.612582915,13.7257868 C1.17243847,13.1011739 2.01439881,13.570848 3.39617283,14.8369442 L6.19931556,16.9218619 L6.65204535,16.4167658 L0.52484617,9.58084584 L0.496594351,9.45246726 C0.359703805,8.83042543 0.359703805,8.33883785 0.528635721,7.961894 C0.682487725,7.61859849 1.06862669,7.18779561 1.70773552,6.61531775 L2.05244524,6.30654611 L9.68667488,13.6070594 C9.99777975,13.6811651 10.1565184,13.6855641 10.1204658,13.7257868 C10.1067831,13.7410522 10.1056797,13.5036624 10.0265753,13.0966438 L2.61377742,3.64496245 L2.59998568,3.49886259 C2.46757824,2.09623278 2.46757824,1.27820838 2.64149859,0.890133642 C2.92209544,0.26402781 3.56246451,0.26402781 4.36688521,0.642106747 L4.52653094,0.760892834 L12.8481574,10.045065 C13.623908,10.1181265 14.1666768,10.1294992 14.3815586,10.1067499 C14.3760135,9.98376324 14.3385701,9.80321872 14.2664525,9.57259154 L10.0841211,3.73994733 C8.97271148,2.16327214 8.58415704,1.29627664 9.0640344,0.760892834 C9.46540334,0.313098358 10.2805137,0.313098358 11.6534107,0.605593633 L11.8335243,0.643966778 L18.1781318,8.90218809 C18.4449749,8.96047844 18.6197962,8.95345997 18.7006628,8.9083498 C18.8478885,8.82622233 19.1668068,8.47041539 19.5714658,7.90990465 L21.7904384,4.19644958 L21.9909916,4.14574884 C23.3193524,3.80993313 24.1623619,3.80993313 24.5987282,4.29677301 C25.0095605,4.75512546 25.0095605,5.64384481 24.7163972,7.08727128 L24.7054758,7.13088726 L23.6757821,10.5772761 Z"></path>
                </g>
            </g>
        </g>
    </g>
</svg>