<?xml version="1.0" encoding="UTF-8"?>
<svg width="31px" height="31px" viewBox="0 0 31 31" version="1.1" xmlns="http://www.w3.org/2000/svg" xmlns:xlink="http://www.w3.org/1999/xlink">
    <!-- Generator: Sketch 47.1 (45422) - http://www.bohemiancoding.com/sketch -->
    <title>ic-side-note-home</title>
    <desc>Created with Sketch.</desc>
    <defs>
        <circle id="path-1" cx="4.5" cy="26.5" r="4.5"></circle>
        <circle id="path-2" cx="26.5" cy="4.5" r="4.5"></circle>
    </defs>
    <g id="Page-1" stroke="none" stroke-width="1" fill="none" fill-rule="evenodd">
        <g id="Desktop-HD" transform="translate(-670.000000, -437.000000)">
            <g id="ic-side-note-home" transform="translate(670.000000, 437.000000)">
                <path d="M15.5,28 C22.4035594,28 28,22.4035594 28,15.5 C28,8.59644063 22.4035594,3 15.5,3 C8.59644063,3 3,8.59644063 3,15.5 C3,22.4035594 8.59644063,28 15.5,28 Z M15.5,31 C6.93958638,31 0,24.0604136 0,15.5 C0,6.93958638 6.93958638,0 15.5,0 C24.0604136,0 31,6.93958638 31,15.5 C31,24.0604136 24.0604136,31 15.5,31 Z" id="Oval-3" fill="#08BDA8" fill-rule="nonzero"></path>
                <rect id="Rectangle-10" fill="#08BDA8" x="9" y="9" width="9" height="3"></rect>
                <rect id="Rectangle-10-Copy" fill="#08BDA8" x="9" y="14" width="12" height="3"></rect>
                <rect id="Rectangle-10-Copy-2" fill="#08BDA8" x="9" y="19" width="12" height="3"></rect>
                <g id="Oval-4">
                    <use fill="#FFFFFF" fill-rule="evenodd" xlink:href="#path-1"></use>
                    <circle stroke="#08BDA8" stroke-width="3" cx="4.5" cy="26.5" r="3"></circle>
                </g>
                <g id="Oval-4-Copy">
                    <use fill="#FFFFFF" fill-rule="evenodd" xlink:href="#path-2"></use>
                    <circle stroke="#08BDA8" stroke-width="3" cx="26.5" cy="4.5" r="3"></circle>
                </g>
            </g>
        </g>
    </g>
</svg>