<svg xmlns="http://www.w3.org/2000/svg" xmlns:xlink="http://www.w3.org/1999/xlink" width="217.631" height="128.647" viewBox="0 0 217.631 128.647">
    <defs>
        <style>
            .cls-1{fill:url(#linear-gradient)}.cls-2{fill:url(#linear-gradient-2)}.cls-3{fill:url(#linear-gradient-3)}.cls-4{fill:#98bbe9}.cls-5{fill:#e97175}.cls-6{fill:#5ace87}.cls-7{fill:#6dd0c1}.cls-8{fill:#ffebef}.cls-9{fill:#d2def8}.cls-10{fill:url(#linear-gradient-5)}.cls-11{fill:url(#linear-gradient-6)}.cls-12{fill:url(#linear-gradient-7)}.cls-13{fill:url(#linear-gradient-9)}.cls-14{fill:url(#linear-gradient-10)}.cls-15{fill:url(#linear-gradient-12)}.cls-16{fill:url(#linear-gradient-14)}.cls-17{fill:url(#linear-gradient-17)}.cls-18{fill:url(#linear-gradient-19)}.cls-19{fill:url(#linear-gradient-22)}.cls-20{fill:#fff}.cls-21,.cls-39{fill:none}.cls-21,.cls-28{stroke:#e97175;stroke-width:2px}.cls-21,.cls-28,.cls-39{stroke-miterlimit:10}.cls-22{fill:#f49422}.cls-23{fill:#eb3037}.cls-24{clip-path:url(#clip-path)}.cls-25{fill:#42b16d}.cls-26{fill:url(#linear-gradient-26)}.cls-27{fill:url(#linear-gradient-27)}.cls-28{fill:url(#linear-gradient-28)}.cls-29{fill:url(#linear-gradient-29)}.cls-30{fill:url(#linear-gradient-31)}.cls-31{fill:#f2771d}.cls-32{fill:url(#linear-gradient-32)}.cls-33{fill:url(#linear-gradient-33)}.cls-34{fill:#f2a384}.cls-35{fill:url(#linear-gradient-34)}.cls-36{fill:url(#linear-gradient-36)}.cls-37{fill:url(#linear-gradient-37)}.cls-38{fill:url(#linear-gradient-39)}.cls-39{stroke:#9b0012}.cls-40{fill:url(#linear-gradient-40)}.cls-41{fill:url(#linear-gradient-41)}.cls-42{fill:#efb84f;opacity:.5}.cls-43{fill:url(#linear-gradient-42)}.cls-44{clip-path:url(#clip-path-2)}
        </style>
        <linearGradient id="linear-gradient" x1=".5" x2=".673" y1=".321" y2="1.16" gradientUnits="objectBoundingBox">
            <stop offset="0" stop-color="#6dd0c1"/>
            <stop offset="1" stop-color="#009175"/>
        </linearGradient>
        <linearGradient id="linear-gradient-2" x1=".5" x2=".5" y1="-.109" y2="1" gradientUnits="objectBoundingBox">
            <stop offset="0" stop-color="#ffe579"/>
            <stop offset="1" stop-color="#feb755"/>
        </linearGradient>
        <linearGradient id="linear-gradient-3" x1=".5" x2=".5" y1="-1.043" y2="1" gradientUnits="objectBoundingBox">
            <stop offset="0" stop-color="#fff"/>
            <stop offset="1" stop-color="#ffebef"/>
        </linearGradient>
        <linearGradient id="linear-gradient-5" x1="1.574" x2="1.188" y1="-.397" y2="1.159" gradientUnits="objectBoundingBox">
            <stop offset="0" stop-color="#ffebef"/>
            <stop offset="1" stop-color="#eb3037"/>
        </linearGradient>
        <linearGradient id="linear-gradient-6" x1="1.494" x2="1.574" y1="-.866" y2="2.197" xlink:href="#linear-gradient-5"/>
        <linearGradient id="linear-gradient-7" x1=".5" x2="-.338" y1=".197" y2="2.945" gradientUnits="objectBoundingBox">
            <stop offset="0" stop-color="#f7faff"/>
            <stop offset=".076" stop-color="#f7faff"/>
            <stop offset="1" stop-color="#e97175"/>
        </linearGradient>
        <linearGradient id="linear-gradient-9" x1=".5" x2=".673" y1=".321" y2="1.16" gradientUnits="objectBoundingBox">
            <stop offset="0" stop-color="#ddf4f1"/>
            <stop offset="1" stop-color="#6dd0c1"/>
        </linearGradient>
        <linearGradient id="linear-gradient-10" x1=".5" x2=".5" y1="-.109" y2="1" gradientUnits="objectBoundingBox">
            <stop offset="0" stop-color="#f9d65c"/>
            <stop offset="1" stop-color="#f49422"/>
        </linearGradient>
        <linearGradient id="linear-gradient-12" x1=".458" x2=".759" y1=".152" y2=".707" gradientUnits="objectBoundingBox">
            <stop offset="0" stop-color="#e97175"/>
            <stop offset="1" stop-color="#eb3037"/>
        </linearGradient>
        <linearGradient id="linear-gradient-14" x1=".5" x2=".673" y1=".321" y2="1.16" gradientUnits="objectBoundingBox">
            <stop offset="0" stop-color="#ddf4f1"/>
            <stop offset="1" stop-color="#91dbd0"/>
        </linearGradient>
        <linearGradient id="linear-gradient-17" x1=".622" x2="-.338" y1="-.191" y2="2.945" gradientUnits="objectBoundingBox">
            <stop offset="0" stop-color="#f7faff"/>
            <stop offset="1" stop-color="#e97175"/>
        </linearGradient>
        <linearGradient id="linear-gradient-19" x1="1.574" x2="1.188" y1="-.397" y2="1.159" gradientUnits="objectBoundingBox">
            <stop offset="0" stop-color="#ffebef"/>
            <stop offset="1" stop-color="#e97175"/>
        </linearGradient>
        <linearGradient id="linear-gradient-22" x1=".833" x2="1.11" y1=".113" y2="9.535" gradientUnits="objectBoundingBox">
            <stop offset="0" stop-color="#9b0012"/>
            <stop offset="1" stop-color="#67010d"/>
        </linearGradient>
        <clipPath id="clip-path">
            <path id="Mask" d="M3.446 4.308h.517v-1.9a1.034 1.034 0 1 1 2.068 0v2.934a1.035 1.035 0 0 1-1.206 1.02 1.041 1.041 0 0 1-.172.014H3.446v2.756H0V1.723a1.723 1.723 0 1 1 3.446 0z" class="cls-1"/>
        </clipPath>
        <linearGradient id="linear-gradient-26" x1=".833" x2=".5" y1=".113" y2="1.521" gradientUnits="objectBoundingBox">
            <stop offset="0" stop-color="#eb3037"/>
            <stop offset="1" stop-color="#850000"/>
        </linearGradient>
        <linearGradient id="linear-gradient-27" x1=".833" x2=".599" y1=".113" y2=".973" xlink:href="#linear-gradient-26"/>
        <linearGradient id="linear-gradient-28" x1=".5" x2="-.338" y1=".197" y2="2.945" xlink:href="#linear-gradient-19"/>
        <linearGradient id="linear-gradient-29" x1=".5" x2=".5" y1="-1.423" y2="1.702" gradientUnits="objectBoundingBox">
            <stop offset="0" stop-color="#e97175"/>
            <stop offset="1" stop-color="#9b0012"/>
        </linearGradient>
        <linearGradient id="linear-gradient-31" x1=".833" x2=".599" y1=".113" y2=".973" xlink:href="#linear-gradient-22"/>
        <linearGradient id="linear-gradient-32" x1=".695" x2=".695" y1=".756" y2=".14" gradientUnits="objectBoundingBox">
            <stop offset="0" stop-color="#f4af92"/>
            <stop offset="1" stop-color="#ec906c"/>
        </linearGradient>
        <linearGradient id="linear-gradient-33" x1=".851" x2=".049" y1="1.093" y2="-.472" gradientUnits="objectBoundingBox">
            <stop offset="0" stop-color="#67010d"/>
            <stop offset="1" stop-color="#9b0012"/>
        </linearGradient>
        <linearGradient id="linear-gradient-34" x1="-.088" x2=".173" y1="1.097" y2=".154" gradientUnits="objectBoundingBox">
            <stop offset="0" stop-color="#fad0ba"/>
            <stop offset="1" stop-color="#f2a384"/>
        </linearGradient>
        <linearGradient id="linear-gradient-36" x1="1" x2="0" y1=".5" y2=".5" xlink:href="#linear-gradient-26"/>
        <linearGradient id="linear-gradient-37" x1=".607" x2=".521" y2=".5" xlink:href="#linear-gradient-12"/>
        <linearGradient id="linear-gradient-39" x1=".5" x2=".552" y1=".278" y2="1.036" gradientUnits="objectBoundingBox">
            <stop offset="0" stop-color="#9b0012"/>
            <stop offset="1" stop-color="#eb3037"/>
        </linearGradient>
        <linearGradient id="linear-gradient-40" x1=".607" x2=".5" y2="1" gradientUnits="objectBoundingBox">
            <stop offset="0" stop-color="#fff"/>
            <stop offset="1" stop-color="#e5eeff"/>
        </linearGradient>
        <linearGradient id="linear-gradient-41" x1=".496" x2=".496" y1="-.109" xlink:href="#linear-gradient-10"/>
        <linearGradient id="linear-gradient-42" y1="-.109" y2="1.002" xlink:href="#linear-gradient-10"/>
        <clipPath id="clip-path-2">
            <path id="Jacket" d="M.779 6.127s1.821 4.782 2.469 6.787A12.294 12.294 0 0 1 4 17.876c-.436 3.906-1.65 5.186-.6 14.53.411 3.653 2.719 8.8 3.164 12.869.694 6.346-1.012 8.541-.585 9.59.585 1.436 6.826.116 9.95 3.375 1.006-1.939-2.816-8.775-2.816-9.819s-.13-8.886-3.34-14.639-2.453-16.83-2.453-16.83 8.066-1.549 11.8-4.039S28.6 2.168 28.6 2.168 27.746 0 26.638 0 18.02 6.806 12.214 7.631c-2.434.346-4.388-1.09-6.228-1.5a49.091 49.091 0 0 0-5.414-.758c-.578-.2-.572.3-.572.3z" class="cls-2" transform="rotate(180 14.301 29.12)"/>
        </clipPath>
    </defs>
    <g id="Group_1214" data-name="Group 1214" transform="translate(21996.656 -13554.91)">
        <g id="Group_1109" data-name="Group 1109" transform="translate(-21996.656 13554.91)">
            <g id="Group_1108" data-name="Group 1108">
                <path id="Leaf" d="M6.893.013c-2.9.3-1.9 7.072-2.695 8.324s-3.032 1.62-2.72 4.33 2.47 2.619 2.727 4.87-4.594 1.958-4.18 5.511 4.155 4.631 4.4 6.771-1.606 2.981-1.058 7.717 4.324 5.708 9.962 6.122 9.136-1.184 8.588-6.292-6.534-4.966-7.274-7.766 3.052-4.313 2.7-7.59-6.059-3.127-6.35-5.744 4.173-4.046 3.876-6.766-1.43-3.124-3.568-4.06C9.16 4.523 9.792-.286 6.893.013z" class="cls-3" transform="rotate(16 -62.112 695.298)"/>
                <path id="leaves_base" d="M5.117 6.2a.179.179 0 0 0 .233-.18.315.315 0 0 0-.2-.315A6.083 6.083 0 0 1 .43.26.284.284 0 0 0 .188 0 .2.2 0 0 0 0 .243 6.688 6.688 0 0 0 5.117 6.2z" class="cls-4" data-name="leaves base" transform="rotate(16 -190.55 705.124)"/>
                <path id="leaves_base-2" d="M5.482 4.187a.2.2 0 0 0 .152-.269.291.291 0 0 0-.277-.233C3.438 3.845 1.8 2.678.408.151A.246.246 0 0 0 .1.02a.231.231 0 0 0-.061.323c1.497 2.71 3.325 4.017 5.443 3.844z" class="cls-4" data-name="leaves base" transform="rotate(16 -156.361 702.638)"/>
                <path id="leaves_base-3" d="M2.864 2.062a.143.143 0 0 0 .1-.189.181.181 0 0 0-.188-.145c-.973.145-1.8-.391-2.5-1.634A.159.159 0 0 0 .067.017a.162.162 0 0 0-.041.222C.8 1.6 1.755 2.225 2.864 2.062z" class="cls-5" data-name="leaves base" transform="rotate(16 -109.468 704.587)"/>
                <path id="leaves_base-4" d="M.146 2.346A.166.166 0 0 1 0 2.169a.155.155 0 0 1 .153-.162c1 .05 1.691-.568 2.107-1.895a.144.144 0 0 1 .191-.1.181.181 0 0 1 .091.22C2.086 1.689 1.28 2.4.146 2.346z" class="cls-5" data-name="leaves base" transform="rotate(16 -103.44 715.676)"/>
                <path id="leaves_base-5" d="M.211 3.932A.257.257 0 0 1 0 3.661a.217.217 0 0 1 .225-.228c1.783.176 3.036-.893 3.788-3.275a.2.2 0 0 1 .279-.139.281.281 0 0 1 .131.333C3.61 2.928 2.2 4.132.211 3.932z" class="cls-4" data-name="leaves base" transform="rotate(16 -147.445 720.076)"/>
                <path id="leaves_base-6" d="M.211 3.751A.273.273 0 0 1 0 3.469a.205.205 0 0 1 .225-.218C2.008 3.513 3.261 2.5 4.013.15a.193.193 0 0 1 .279-.127.294.294 0 0 1 .131.341C3.61 2.908 2.2 4.047.211 3.751z" class="cls-4" data-name="leaves base" transform="rotate(16 -192.43 725.999)"/>
                <path id="leaves_base-7" d="M6.674 46.443a.413.413 0 0 0 .326.369c.16.016.489-.1.468-.288a27.371 27.371 0 0 1-.878-4.779c-.341-3.033.636-8.006-.042-11.389S2.176 20.6.849 15.588C-.231 11.535.507 7.82.625 5.362A22.589 22.589 0 0 0 .169 0a36.941 36.941 0 0 1 .3 5.373C.3 7.755-.324 10.9.215 14.372c1 6.469 5.162 12.173 5.639 16.466s-.453 6.9-.216 10.66q.237 3.757 1.036 4.945z" class="cls-5" data-name="leaves base" transform="rotate(16 -80.67 718.103)"/>
                <path id="Leaf-2" d="M10.893 0c2.9 0 2.67 7.086 3.6 8.323s3.193 1.48 3.193 4.353-2.157 2.874-2.157 5.24 4.8 1.93 4.8 5.74-3.619 4.93-3.619 7.191 1.956 3.212 1.956 8.256-3.694 5.79-9.332 5.79S0 43.047 0 38s6.02-4.735 6.451-7.562-3.526-4.366-3.526-7.638 5.7-3.274 5.7-5.949-4.6-3.889-4.6-6.618 1.08-3.217 3.1-4.323S7.994 0 10.893 0z" class="cls-1" data-name="Leaf" transform="rotate(-17 255.736 -524.543)"/>
                <path id="Leaves_base-8" d="M.26 6.186A.218.218 0 0 1 0 5.985a.268.268 0 0 1 .164-.313A5.068 5.068 0 0 0 4.3.263.242.242 0 0 1 4.517 0a.242.242 0 0 1 .214.263A5.565 5.565 0 0 1 .26 6.186z" class="cls-6" data-name="Leaves base" transform="rotate(-17 372.263 -573.886)"/>
                <path id="Leaves_base-9" d="M.282 6.179a.21.21 0 0 1-.272-.168.278.278 0 0 1 .139-.331C1.983 4.951 2.894 3.167 2.894.263A.243.243 0 0 1 3.109 0a.243.243 0 0 1 .216.263c0 3.118-1.018 5.112-3.043 5.916z" class="cls-7" data-name="Leaves base" transform="rotate(8 -425.291 1348.644)"/>
                <path id="Leaves_base-10" d="M.193 3.242a.144.144 0 0 1-.186-.114.187.187 0 0 1 .093-.223c.934-.366 1.4-1.261 1.4-2.728A.164.164 0 0 1 1.643 0a.164.164 0 0 1 .147.177c0 1.612-.535 2.648-1.597 3.065z" class="cls-6" data-name="Leaves base" transform="rotate(8 -335.668 1322.66)"/>
                <path id="Leaves_base-11" d="M1.6 3.242a.144.144 0 0 0 .186-.114.187.187 0 0 0-.094-.223C.756 2.539.294 1.644.294.177A.164.164 0 0 0 .147 0 .164.164 0 0 0 0 .177c0 1.612.535 2.648 1.6 3.065z" class="cls-6" data-name="Leaves base" transform="rotate(-42 166.082 -200.001)"/>
                <path id="Leaves_base-12" d="M2.788 5.715a.209.209 0 0 0 .27-.168.279.279 0 0 0-.137-.331C1.255 4.55.428 2.92.428.262A.242.242 0 0 0 .214 0 .242.242 0 0 0 0 .262c0 2.872.933 4.711 2.788 5.453z" class="cls-6" data-name="Leaves base" transform="rotate(-42 182.867 -193.887)"/>
                <path id="Leaves_base-13" d="M2.788 5.715a.209.209 0 0 0 .27-.168.279.279 0 0 0-.137-.331C1.255 4.55.428 2.92.428.262A.242.242 0 0 0 .214 0 .242.242 0 0 0 0 .262c0 2.872.933 4.711 2.788 5.453z" class="cls-7" data-name="Leaves base" transform="rotate(-42 199.689 -189.85)"/>
                <path id="Leaves_base-14" d="M1.718 47.8a.323.323 0 0 1-.289.348c-.16 0-.506-.156-.506-.348a27.883 27.883 0 0 0 .349-4.861c0-3.108-1.537-8.284-1.232-11.717s3.291-9.961 4.053-15.155c.62-4.226-.53-8.022-.922-10.538A23.854 23.854 0 0 1 3.027 0a39.156 39.156 0 0 0 .3 5.525c.429 2.438 1.4 5.654 1.258 9.264-.272 6.72-3.8 12.56-3.8 16.951s1.23 7.14 1.414 11.022-.481 5.038-.481 5.038z" class="cls-7" data-name="Leaves base" transform="rotate(-17 266.21 -553.661)"/>
                <path id="Leaf-3" d="M9.44 0c-2.9 0-2.67 6.049-3.6 7.105s-3.193 1.264-3.193 3.717S4.8 13.275 4.8 15.295 0 16.942 0 20.2s3.619 4.2 3.619 6.134-1.956 2.742-1.956 7.048S5.357 38.325 11 38.325s9.337-1.577 9.337-5.883-6.02-4.042-6.451-6.456 3.527-3.728 3.527-6.523-5.7-2.8-5.7-5.079 4.6-3.32 4.6-5.65-1.08-2.746-3.1-3.69S12.338 0 9.44 0z" class="cls-8" data-name="Leaf" transform="rotate(28 -8.448 427.86)"/>
                <path id="Leaves_base-15" d="M4.472 5.281a.214.214 0 0 0 .255-.171.224.224 0 0 0-.164-.267C1.787 4.21.428 2.682.428.224A.219.219 0 0 0 .214 0 .219.219 0 0 0 0 .224c0 2.684 1.51 4.381 4.472 5.057z" class="cls-5" data-name="Leaves base" transform="rotate(28 -73.66 424.969)"/>
                <path id="Leaves_base-16" d="M3.042 5.275a.214.214 0 0 0 .272-.144.226.226 0 0 0-.138-.283C1.342 4.227.431 2.7.431.224A.22.22 0 0 0 .216 0 .22.22 0 0 0 0 .224c0 2.662 1.018 4.364 3.042 5.051z" class="cls-5" data-name="Leaves base" transform="rotate(3 -1365.874 3736.435)"/>
                <path id="Leaves_base-17" d="M1.6 2.768a.146.146 0 0 0 .186-.1.152.152 0 0 0-.094-.191A2.143 2.143 0 0 1 .294.151.149.149 0 0 0 .147 0 .149.149 0 0 0 0 .151a2.438 2.438 0 0 0 1.6 2.617z" class="cls-5" data-name="Leaves base" transform="rotate(3 -1168.016 3839.401)"/>
                <path id="Leaves_base-18" d="M.193 2.768a.146.146 0 0 1-.186-.1A.152.152 0 0 1 .1 2.48 2.143 2.143 0 0 0 1.5.151a.147.147 0 1 1 .294 0A2.438 2.438 0 0 1 .193 2.768z" class="cls-5" data-name="Leaves base" transform="rotate(53 35.596 237.636)"/>
                <path id="Leaves_base-19" d="M.281 4.879a.212.212 0 0 1-.27-.143.226.226 0 0 1 .137-.282c1.666-.57 2.493-1.961 2.493-4.23a.214.214 0 1 1 .428 0c0 2.451-.933 4.021-2.788 4.655z" class="cls-5" data-name="Leaves base" transform="rotate(53 24.321 239.915)"/>
                <path id="Leaves_base-20" d="M.281 4.879a.212.212 0 0 1-.27-.143.226.226 0 0 1 .137-.282c1.666-.57 2.493-1.961 2.493-4.23a.214.214 0 1 1 .428 0c0 2.451-.933 4.021-2.788 4.655z" class="cls-9" data-name="Leaves base" transform="rotate(53 12.567 241.9)"/>
                <path id="Leaves_base-21" d="M2.886 40.8a.293.293 0 0 0 .289.3c.16 0 .506-.133.506-.3a20.419 20.419 0 0 1-.349-4.15c0-2.654 1.537-7.072 1.232-10S1.273 18.147.511 13.713c-.62-3.608.53-6.848.922-9A17.408 17.408 0 0 0 1.577 0a28.585 28.585 0 0 1-.3 4.716C.843 6.8-.131 9.543.015 12.625c.272 5.736 3.8 10.722 3.8 14.471S2.582 33.191 2.4 36.5s.486 4.3.486 4.3z" class="cls-5" data-name="Leaves base" transform="rotate(28 -19.714 441.41)"/>
                <path id="Vase_base" d="M0 0h17.18l-3.818 11.24H3.818z" class="cls-10" data-name="Vase base" transform="translate(180.044 95.466)"/>
                <rect id="Vase_base-2" width="17.524" height="3.513" class="cls-11" data-name="Vase base" rx="1.756" transform="translate(179.7 95.115)"/>
                <path id="Rectangle" d="M0 0h129.749v86.095H0z" class="cls-12" transform="translate(47.023 6.779)"/>
                <rect id="Rectangle_2" width="31.188" height="31.533" class="cls-10" data-name="Rectangle 2" rx="4" transform="translate(55.638 22.228)"/>
                <circle id="Chart_base" cx="13.957" cy="13.957" r="13.957" class="cls-13" data-name="Chart base" transform="translate(55.638 56.517)"/>
                <path id="Chart_base-2" d="M0 0a13.963 13.963 0 0 1 13.261 9.591L0 14.646V0z" class="cls-14" data-name="Chart base" transform="translate(69.595 56.517)"/>
                <rect id="Chart_bar_base" width="6.892" height="10.339" class="cls-13" data-name="Chart bar base" rx="3.446" transform="translate(115.407 31.576)"/>
                <rect id="Chart_bar_base-2" width="6.892" height="13.785" class="cls-15" data-name="Chart bar base" rx="3.446" transform="translate(132.316 28.776)"/>
                <rect id="Chart_bar_base-3" width="6.892" height="5.169" class="cls-13" data-name="Chart bar base" rx="2.585" transform="translate(140.931 37.391)"/>
                <rect id="Chart_bar_base-4" width="6.892" height="10.339" class="cls-16" data-name="Chart bar base" rx="3.446" transform="translate(149.719 32.222)"/>
                <rect id="Chart_bar_base-5" width="6.892" height="15.508" class="cls-15" data-name="Chart bar base" rx="3.446" transform="translate(158.334 27.053)"/>
                <rect id="Chart_bar_base-6" width="6.892" height="18.954" class="cls-13" data-name="Chart bar base" rx="3.446" transform="translate(123.7 23.606)"/>
                <rect id="Chart_base-3" width="56" height="39.114" class="cls-17" data-name="Chart base" rx="4" transform="translate(113.017 46.007)"/>
                <rect id="UI_base" width="9.994" height="9.994" class="cls-14" data-name="UI base" rx="4" transform="translate(91.995 25.329)"/>
                <rect id="UI_base-2" width="9.994" height="9.994" class="cls-18" data-name="UI base" rx="4" transform="translate(91.995 40.493)"/>
                <rect id="UI_base-3" width="9.994" height="9.994" class="cls-14" data-name="UI base" rx="4" transform="translate(91.995 55.656)"/>
                <rect id="UI_base-4" width="9.994" height="9.994" class="cls-18" data-name="UI base" rx="4" transform="translate(91.995 70.819)"/>
                <path id="Titlebar_base" d="M2 0h125.749a2 2 0 0 1 2 2v11.612H0V2a2 2 0 0 1 2-2z" class="cls-19" data-name="Titlebar base" transform="translate(47.023)"/>
                <g id="Titlebar_button" data-name="Titlebar button" transform="translate(51.33 4.652)">
                    <circle id="Titlebar_button-2" cx="2.154" cy="2.154" r="2.154" class="cls-20" data-name="Titlebar button"/>
                    <circle id="Titlebar_button-3" cx="2.154" cy="2.154" r="2.154" class="cls-20" data-name="Titlebar button" transform="translate(6.72)"/>
                    <circle id="Titlebar_button-4" cx="2.154" cy="2.154" r="2.154" class="cls-20" data-name="Titlebar button" transform="translate(13.44)"/>
                </g>
                <g id="Chart" transform="translate(118.186 52.554)">
                    <path id="Path_52" d="M0 1h46.45" class="cls-21" data-name="Path 52" transform="translate(0 -1)"/>
                    <path id="Path_52_Copy" d="M0 1h46.45" class="cls-21" data-name="Path 52 Copy" transform="translate(0 4.514)"/>
                    <path id="Path_52_Copy_2" d="M0 1h46.45" class="cls-21" data-name="Path 52 Copy 2" transform="translate(0 10.028)"/>
                    <path id="Path_52_Copy_3" d="M0 1h46.45" class="cls-21" data-name="Path 52 Copy 3" transform="translate(0 15.542)"/>
                    <path id="Path_52_Copy_4" d="M0 1h46.45" class="cls-21" data-name="Path 52 Copy 4" transform="translate(0 21.056)"/>
                    <path id="Path_52_Copy_5" d="M0 1h46.45" class="cls-21" data-name="Path 52 Copy 5" transform="translate(0 26.569)"/>
                </g>
                <path id="Chart_base-4" d="M.643 26.435a.345.345 0 1 1-.6-.346l6.975-12.013a1.723 1.723 0 0 1 2.741-.321l5.934 6.258a1.034 1.034 0 0 0 1.567-.078l11.357-14.66a1.723 1.723 0 0 1 2.805.114l5.42 8.308a1.034 1.034 0 0 0 1.709.033L48.182.145a.345.345 0 0 1 .562.4l-9.631 13.583a1.723 1.723 0 0 1-2.849-.055l-5.42-8.308a1.034 1.034 0 0 0-1.682-.065L17.805 20.356a1.723 1.723 0 0 1-2.612.13l-5.935-6.257a1.034 1.034 0 0 0-1.644.193z" class="cls-22" data-name="Chart base" transform="translate(116.48 50.795)"/>
                <path id="Chart_base-5" d="M.561 15.407a.345.345 0 0 1-.432-.537l14.5-11.661a1.723 1.723 0 0 1 2.045-.085L22.95 7.37a1.034 1.034 0 0 0 1.32-.135l6.024-6.179a1.723 1.723 0 0 1 2.39-.074L39.549 7.2a1.034 1.034 0 0 0 1.391 0L48.726.09a.345.345 0 1 1 .465.51l-7.786 7.11a1.723 1.723 0 0 1-2.319 0l-6.865-6.217a1.034 1.034 0 0 0-1.435.044l-6.023 6.179a1.723 1.723 0 0 1-2.2.225l-6.277-4.247a1.034 1.034 0 0 0-1.227.051z" class="cls-23" data-name="Chart base" transform="translate(116.48 61.919)"/>
                <path id="Mask-2" d="M3.446 4.308h.517v-1.9a1.034 1.034 0 1 1 2.068 0v2.934a1.035 1.035 0 0 1-1.206 1.02 1.041 1.041 0 0 1-.172.014H3.446v2.756H0V1.723a1.723 1.723 0 1 1 3.446 0z" class="cls-1" data-name="Mask" transform="translate(140.931 72.542)"/>
                <g id="Cactus" class="cls-24" transform="translate(140.931 72.542)">
                    <path id="Combined_Shape" d="M5.686 10.818V0h.172v10.818zm-.517 0V0h.172v10.818zm-.517 0V0h.172v10.818zm-.517 0V0h.172v10.818zm-.517 0V0h.172v10.818zm-.517 0V0h.172v10.818zm-.517 0V0h.172v10.818zm-.517 0V0h.173v10.818zm-.517 0V0h.172v10.818zm-.517 0V0h.172v10.818zm-.517 0V0h.173v10.818zm-.517 0V0h.173v10.818z" class="cls-25" data-name="Combined Shape" transform="translate(0 -.517)"/>
                </g>
                <path id="vase" d="M0 0h8.615L6.7 5.514H1.915z" class="cls-10" transform="translate(138.519 80.468)"/>
                <rect id="vase-2" width="8.788" height="1.723" class="cls-11" data-name="vase" rx=".862" transform="translate(138.346 80.296)"/>
                <path id="Imac" d="M0 0h7.585v5.342H0z" class="cls-26" transform="translate(163.579 81.158)"/>
                <rect id="Imac-2" width="34.341" height="19.976" class="cls-27" data-name="Imac" rx="3.2" transform="translate(150.063 61.342)"/>
                <path id="Imac-3" d="M0 0h31.583v17.221H0z" class="cls-28" data-name="Imac" transform="translate(151.443 62.72)"/>
                <path id="Table_base" d="M.414 33.753a.459.459 0 0 0 .457-.411L4.413 0H0v33.34a.414.414 0 0 0 .414.413zM3.8.551L.552 31.128V.551H3.8z" class="cls-29" data-name="Table base" transform="translate(136.108 89.103)"/>
                <path id="Table_base-2" d="M4 33.753a.459.459 0 0 1-.457-.411L0 0h4.413v33.34a.414.414 0 0 1-.413.413zM.613.551l3.249 30.577V.551H.613z" class="cls-29" data-name="Table base" transform="translate(192.654 89.103)"/>
                <path id="Table_base-3" d="M0 0h67.717v2.755H0z" class="cls-30" data-name="Table base" transform="translate(132.66 86.499)"/>
                <path id="Jacket-2" d="M36.49 12.946C33.575 17.294 8.169 17.92 8.169 17.92H0L5.2 6.828 20.184 0S39.405 8.6 36.49 12.946z" class="cls-31" data-name="Jacket" transform="translate(22.382 83.742)"/>
                <path id="neck" d="M9.7 4.1q2.153.983 2.084.807C11.63 4.517 7.3 3.05 7.13 2.039A6.661 6.661 0 0 1 7.13 0l-3.7 2.344a4.6 4.6 0 0 1-.3 3.468A6.653 6.653 0 0 1 0 8.242q6.459 5.6 9.407 5.942c2.948.344 2.635-2 .3-5.457Q7.37 5.274 9.7 4.1z" class="cls-32" transform="translate(33.422 34.975)"/>
                <path id="Hair" d="M5.828 2.453C.5 10.638-.41 11.455.139 14.068c1.13 5.372 16.812 10.916 18.7 6.253s-2.444-2.242-2.235-6.253q.115-2.206 4.934-9.6-11.959-7.78-15.71-2.015z" class="cls-33" transform="translate(30.767 23.93)"/>
                <path id="Face" d="M15.915.26L14.562.236a10.265 10.265 0 0 0-7.283 1.126Q3.754 3.291 4.4 5.795l-.971 4.061a4.631 4.631 0 0 1-.293 3.481A6.649 6.649 0 0 1 0 15.774q6.471 5.626 9.423 5.972c2.952.348 2.637-2.01.3-5.478q-2.346-3.468-.016-4.641a14.525 14.525 0 0 0 2.79 1.094c.533.072 2.138-2.144 3.255-4.8.115-.273 1.036-1.178 1.139-1.459.229-.624-.3-.666-.223-1.342a6.228 6.228 0 0 0 .424-2.052A10.388 10.388 0 0 0 15.915.26z" class="cls-34" transform="translate(33.258 27.452)"/>
                <path id="leg" d="M.513 0L0 3.192a3.245 3.245 0 0 0 2.312 1.274 5.261 5.261 0 0 0 2.45-.643L5.276.335z" class="cls-35" transform="translate(47.031 121.199)"/>
                <path id="leg-2" d="M.513 0L0 3.192a3.245 3.245 0 0 0 2.312 1.274 5.261 5.261 0 0 0 2.45-.643L5.276.335z" class="cls-35" data-name="leg" transform="translate(31.119 121.199)"/>
                <path id="Shoes" d="M.407 0C.017 0 .017 1.317 0 2.32a9.288 9.288 0 0 0 .2 1.668.646.646 0 0 0 .6.541c6.248.227 10.012.22 10.024-.018.5-1.63.227-1.806-2.606-3.084C7.066.907 6.009.658 5.293.232c-.245-.146-.759 1.034-2.452 1.034S.8 0 .407 0z" class="cls-36" transform="translate(30.697 123.953)"/>
                <path id="Pants" d="M.025 0a48.915 48.915 0 0 1 0 5.866q-.35.914 4.1 22.8c-.25 14.242-2.367 22.064-2.113 23.468.381 2.107 4.807 2.107 5.344.584Q7.893 51.2 11.8 27.971l.457-12.143q2.733 4.773 7.645 13c-.536 15.1-2.567 23.095-1.861 23.979.63.788 4.778 1.345 5.027 0q3.788-15.626 3.787-24.138T19.057 0z" class="cls-37" transform="translate(29.485 69.055)"/>
                <path id="Shoes-2" d="M.407 0C.017 0 .017 1.317 0 2.32a9.288 9.288 0 0 0 .2 1.668.646.646 0 0 0 .6.541c6.248.227 10.012.22 10.024-.018.5-1.63.227-1.806-2.606-3.084C7.066.907 6.009.658 5.293.232c-.245-.146-.759 1.034-2.452 1.034S.8 0 .407 0z" class="cls-36" data-name="Shoes" transform="translate(46.608 123.953)"/>
                <path id="Shadow" d="M7.642 14.981l.063-.018L2.413 0S1.884.447 0 1.983q2.732 4.771 7.642 12.998z" class="cls-38" transform="translate(41.744 82.899)"/>
                <path id="Texture" d="M0 0l3.037 19.226a10.511 10.511 0 0 1 .028 3.09L0 44.329" class="cls-39" transform="translate(33.36 76.535)"/>
                <path id="Body" d="M15.779 1.069c1.067 1.7 1.806 2.844.507 3.475S12.041 3.661 7.449 0C1.9 2.11 1.33 3.786.193 5.028S3.248 29.46 4.926 30.994c2.435 2.227 6.113 3 10.573 2.4a8.507 8.507 0 0 0 4.747-8.526l-.626-3.933q0-2.319 2.458-11.321l-3.61-7.5z" class="cls-40" transform="translate(27.032 42.24)"/>
                <path id="Jacket-3" d="M13.849 29.472c-2.491 8.472 1.57 18.318.617 22.994-7.121.746-12.436 7.243-12.436 7.243S-.216 56.817.017 47.007s2.571-10.355 2.932-14.821a103.921 103.921 0 0 0 0-11.116l2.16-16.924L13.849 0s2.491 21 0 29.472z" class="cls-41" data-name="Jacket" transform="translate(20.342 42.366)"/>
                <path id="Shadow-2" d="M5.591 13.006C7.054 8.83 5.527 3.666 3.413 0L2.16.594 0 17.518s.115 2.125.15 4.782a24.543 24.543 0 0 0 5.441-9.294z" class="cls-42" data-name="Shadow" transform="translate(23.291 45.918)"/>
                <path id="Hand" d="M2.559 7.26l-.55-1.76A22.9 22.9 0 0 1 0 2.337c.083-.249 1.131.633 1.131.633a8.739 8.739 0 0 1-.1-2.2c.177-.2.972 1.526.972 1.526S2.092.1 2.367 0s.825 2.122.825 2.122.257-1.957.524-1.734a14.261 14.261 0 0 1 .484 3.1s1.058-.923 1.179-.594a9.241 9.241 0 0 1-.624 2.3s.624 8.323-2.196 2.066z" class="cls-34" transform="rotate(-73 45.299 33.52)"/>
                <path id="Sleeve" d="M3.069 11.648s-3.867-5.782 0-8.174C5.1 2.218 6.134-.137 6.551.006c.377.129.156 2.656 1.4 3.468 3.134 2.05 7.023 11.856 4.789 18.249-4.1 11.726-7.81 11.969-10.1 13.442S0 33.235 0 33.235s6.463-9.462 5.959-12.38a74.944 74.944 0 0 0-2.89-9.207z" class="cls-43" transform="rotate(39 -39.727 59.766)"/>
                <path id="Hand-2" d="M2.8 7.3l.544-1.772a23.061 23.061 0 0 0 1.991-3.18c-.083-.251-1.119.636-1.119.636A8.915 8.915 0 0 0 4.313.77C4.139.565 3.352 2.3 3.352 2.3S3.266.105 2.994 0s-.817 2.132-.817 2.132S1.924.166 1.659.39A14.535 14.535 0 0 0 1.18 3.5S.133 2.574.013 2.905a9.4 9.4 0 0 0 .618 2.307S.013 13.584 2.8 7.3z" class="cls-34" data-name="Hand" transform="rotate(33 -16.216 140.82)"/>
                <g id="Jacket-4" data-name="Jacket" transform="rotate(180 36.004 48.16)">
                    <path id="Jacket-5" d="M.779 6.127s1.821 4.782 2.469 6.787A12.294 12.294 0 0 1 4 17.876c-.436 3.906-1.65 5.186-.6 14.53.411 3.653 2.719 8.8 3.164 12.869.694 6.346-1.012 8.541-.585 9.59.585 1.436 6.826.116 9.95 3.375 1.006-1.939-2.816-8.775-2.816-9.819s-.13-8.886-3.34-14.639-2.453-16.83-2.453-16.83 8.066-1.549 11.8-4.039S28.6 2.168 28.6 2.168 27.746 0 26.638 0 18.02 6.806 12.214 7.631c-2.434.346-4.388-1.09-6.228-1.5a49.091 49.091 0 0 0-5.414-.758c-.578-.2-.572.3-.572.3z" class="cls-14" data-name="Jacket" transform="rotate(180 14.301 29.12)"/>
                    <g id="Jacket-6" class="cls-44" data-name="Jacket">
                        <path id="Shadow-3" d="M1.052 4.806A9.7 9.7 0 0 0 .4 1.5C-.211.227.059 0 .059 0s6.693 3.3 11.205 1.5-2.273 4.953-2.273 4.953z" class="cls-42" data-name="Shadow" transform="rotate(180 11.058 22.667)"/>
                    </g>
                </g>
                <path id="Face-2" d="M27.025 17.53c-.61.533 8.486-2.025 8.423-6.791s-3.98-4.654-5.06-5S24.75-1.784 18.266.42c-3.223 1.1-3.481 3.831-6.456 7.1-1.181 1.3-3.235.593-4.444 1.944S5.513 12.92 4.79 14.1c-.975 1.6-5.11 2.59-4.77 5.8s3.9 4.326 8.954 5.025c2.334.323 2.163-2.42 3.272-3.2 1.292-.91 3.113-.622 3.73-1.429 1.148-1.5.448-1.847.96-2.788a6.906 6.906 0 0 1 1.505-1.741s-1.65-.761-.6-2.695 2.831-.959 2.831.745l.937-1.095a8.67 8.67 0 0 0 3.4 1.1 13.534 13.534 0 0 0 2.86-.123s.139 3.001-.844 3.831z" class="cls-33" data-name="Face" transform="rotate(-19 81.883 -43.788)"/>
            </g>
        </g>
    </g>
</svg>
