<svg xmlns="http://www.w3.org/2000/svg" id="outline-link-24px" width="24" height="24" viewBox="0 0 24 24">
    <defs>
        <style>
            .cls-1{fill:none}.cls-2{fill:#393939}
        </style>
    </defs>
    <path id="Rectangle_100" d="M0 0h24v24H0z" class="cls-1" data-name="Rectangle 100"/>
    <path id="Path_1515" d="M7.37 22a5.37 5.37 0 0 1-3.8-9.16l1.55-1.55 1.41 1.42L5 14.25A3.36 3.36 0 0 0 5 19a3.43 3.43 0 0 0 4.76 0l3.09-3.08a3.39 3.39 0 0 0 0-4.77l1.41-1.41a5.37 5.37 0 0 1 0 7.59l-3.09 3.09A5.33 5.33 0 0 1 7.37 22z" class="cls-2" data-name="Path 1515"/>
    <path id="Path_1516" d="M9.75 14.25a5.37 5.37 0 0 1 0-7.59l3.09-3.09a5.37 5.37 0 0 1 7.59 7.59l-1.55 1.55-1.41-1.42L19 9.75A3.37 3.37 0 1 0 14.25 5l-3.09 3.07a3.39 3.39 0 0 0 0 4.77z" class="cls-2" data-name="Path 1516"/>
</svg>
