<svg xmlns="http://www.w3.org/2000/svg" id="baseline-assignment-24px" viewBox="0 0 24 24">
    <defs>
        <style>
            .cls-1{fill:none}.cls-2{fill:#393939}
        </style>
    </defs>
    <path id="Path_13" d="M0 0h24v24H0z" class="cls-1" data-name="Path 13"/>
    <path id="Path_14" d="M19 3h-4.18a2.988 2.988 0 0 0-5.64 0H5a2.006 2.006 0 0 0-2 2v14a2.006 2.006 0 0 0 2 2h14a2.006 2.006 0 0 0 2-2V5a2.006 2.006 0 0 0-2-2zm-7 0a1 1 0 1 1-1 1 1 1 0 0 1 1-1zm2 14H7v-2h7zm3-4H7v-2h10zm0-4H7V7h10z" class="cls-2" data-name="Path 14"/>
</svg>
