<svg xmlns="http://www.w3.org/2000/svg" width="72" height="72" viewBox="0 0 72 72">
    <defs>
        <style>
            .cls-1{fill:#1da1f2}.cls-2{fill:none}
        </style>
    </defs>
    <g id="baseline-verified-72px" transform="translate(-4284 -410)">
        <path id="Path_1872" d="M52.35 30L57 22.77l-7.62-3.96.39-8.58-8.58.39L37.23 3 30 7.65 22.77 3l-3.96 7.62-8.58-.39.39 8.58L3 22.77 7.65 30 3 37.23l7.62 3.96-.39 8.58 8.58-.39L22.77 57 30 52.35 37.23 57l3.96-7.62 8.58.39-.39-8.58L57 37.23zM25.86 40.5l-9.54-9.54 3.18-3.18 6.36 6.36L40.5 19.5l3.18 3.18z" class="cls-1" data-name="Path 1872" transform="translate(4290 416)"/>
        <path id="Rectangle_124" d="M0 0h72v72H0z" class="cls-2" data-name="Rectangle 124" transform="translate(4284 410)"/>
    </g>
</svg>
