<svg xmlns="http://www.w3.org/2000/svg" id="baseline-library_books-24px" viewBox="0 0 24 24">
    <defs>
        <style>
            .cls-1{fill:none}.cls-2{fill:#393939}
        </style>
    </defs>
    <path id="Path_31" d="M0 0h24v24H0z" class="cls-1" data-name="Path 31"/>
    <path id="Path_32" d="M4 6H2v14a2.006 2.006 0 0 0 2 2h14v-2H4zm16-4H8a2.006 2.006 0 0 0-2 2v12a2.006 2.006 0 0 0 2 2h12a2.006 2.006 0 0 0 2-2V4a2.006 2.006 0 0 0-2-2zm-1 9H9V9h10zm-4 4H9v-2h6zm4-8H9V5h10z" class="cls-2" data-name="Path 32"/>
</svg>
