<svg xmlns="http://www.w3.org/2000/svg" id="baseline-profile-48px" viewBox="0 0 24 24">
    <defs>
        <style>
            .cls-1{fill:none}.cls-2{fill:#bd1c1c}
        </style>
    </defs>
    <path id="Rectangle_122" d="M0 0h24v24H0z" class="cls-1" data-name="Rectangle 122"/>
    <path id="Path_1732" d="M19 3H5a2 2 0 0 0-2 2v14a2 2 0 0 0 2 2h14a2 2 0 0 0 2-2V5a2 2 0 0 0-2-2zm-7 4a2.5 2.5 0 1 1-2.5 2.5A2.5 2.5 0 0 1 12 7zm5 10H7v-1.5c0-1.66 3.33-2.5 5-2.5s5 .84 5 2.5z" class="cls-2" data-name="Path 1732"/>
</svg>
