<svg xmlns="http://www.w3.org/2000/svg" viewBox="0 0 217.929 48">
    <defs>
        <style>
            .cls-1{fill:#c43235}
        </style>
    </defs>
    <g id="Symbolic_logo" data-name="Symbolic logo" transform="translate(-101.6 -225.001)">
        <g id="Group_37" data-name="Group 37" transform="translate(101.6 231.867)">
            <path id="Rectangle_7" d="M0 0h4.517v30.188H0z" data-name="Rectangle 7" transform="translate(135.077 .037)"/>
            <g id="Group_36" data-name="Group 36" transform="translate(142.789 2.057)">
                <path id="Rectangle_8" d="M0 0h4.517v19.208H0z" data-name="Rectangle 8" transform="translate(.588 8.961)"/>
                <circle id="Ellipse_1348" cx="2.865" cy="2.865" r="2.865" data-name="Ellipse 1348"/>
            </g>
            <path id="Path_27" d="M225.5 267.041h4.223v2.24a1.114 1.114 0 0 0 .367-.184 9.592 9.592 0 0 1 7.161-2.277 8.566 8.566 0 0 1 4.517 1.359 20.014 20.014 0 0 1 1.836 1.689 2.018 2.018 0 0 1 .257.331c.588-.514 1.1-1.028 1.689-1.469a9.459 9.459 0 0 1 4.04-1.726 11.791 11.791 0 0 1 4.811.037 7.328 7.328 0 0 1 5.288 3.966 8.933 8.933 0 0 1 .881 2.865c.073.771.184 1.506.184 2.277v12.34c-.184 0-.331.037-.477.037h-3.526c-.367 0-.477-.11-.477-.477 0-3.893.037-7.823 0-11.715a6.485 6.485 0 0 0-.734-3.2 4.241 4.241 0 0 0-3.6-2.2 5.964 5.964 0 0 0-4.3 1.028 5.49 5.49 0 0 0-1.946 2.828 10.8 10.8 0 0 0-.331 3.415v10.283h-4.554v-12.376a6.153 6.153 0 0 0-.771-3.122 4.187 4.187 0 0 0-3.122-2.02 6.255 6.255 0 0 0-4.7.955 4.93 4.93 0 0 0-2.02 3.269 19.42 19.42 0 0 0-.294 2.9c-.037 3.269 0 6.537 0 9.769v.588H225.5z" data-name="Path 27" transform="translate(-179.997 -258.301)"/>
            <path id="Path_28" d="M175.349 266.637c.147 0 .294-.037.4-.037h3.673c.367 0 .477.11.477.477 0 6.207.037 12.377-.037 18.583a11.871 11.871 0 0 1-1.873 6.721 7.976 7.976 0 0 1-4.627 3.122 15.78 15.78 0 0 1-5.4.477 14.566 14.566 0 0 1-7.786-2.644c-.294-.22-.588-.477-.881-.734.661-1.065 1.359-2.13 1.983-3.158.22-.331.367-.331.624-.073a9.985 9.985 0 0 0 5.692 2.461 9.619 9.619 0 0 0 4.444-.367 4.375 4.375 0 0 0 2.791-2.828 9.031 9.031 0 0 0 .514-3.562 1.59 1.59 0 0 1-.037-.184c-.441.331-.808.624-1.249.918a9.572 9.572 0 0 1-5.839 1.432 10.475 10.475 0 0 1-4.481-1.1 7.457 7.457 0 0 1-3.415-3.709 9.453 9.453 0 0 1-.735-2.828c-.037-.918-.147-1.8-.147-2.718v-10.249c.184 0 .331-.037.441-.037h3.562c.4 0 .514.11.514.514 0 3.709-.037 7.419.037 11.091a4.688 4.688 0 0 0 4.407 4.921 6.4 6.4 0 0 0 4.921-1.359 5.7 5.7 0 0 0 1.616-2.608 11.867 11.867 0 0 0 .331-3.6v-8.373a1.254 1.254 0 0 0 .08-.549z" data-name="Path 28" transform="translate(-138.109 -258.19)"/>
            <path id="Path_29" d="M117.576 271.649c-.477-.257-.955-.551-1.469-.771a10.742 10.742 0 0 0-5.95-.918 5.145 5.145 0 0 0-2.424.808 1.833 1.833 0 0 0 .147 3.2 10.635 10.635 0 0 0 3.342.992 24.68 24.68 0 0 1 5.619 1.4 5.018 5.018 0 0 1 2.828 2.718A5.682 5.682 0 0 1 120 282.3c-.588 3.085-2.791 4.37-5.509 5.142a13.437 13.437 0 0 1-4 .477 17.069 17.069 0 0 1-7.345-1.689 6.075 6.075 0 0 1-.918-.551 7.058 7.058 0 0 1-.624-.477c.588-1.138 1.175-2.24 1.763-3.379.037-.073.331-.11.4-.073a11.305 11.305 0 0 0 3.305 1.542 12.043 12.043 0 0 0 6.647.257 2.287 2.287 0 0 0 1.689-1.359 1.7 1.7 0 0 0-.477-2.02 4.5 4.5 0 0 0-2.13-.845c-1.579-.294-3.158-.551-4.7-.881a7.616 7.616 0 0 1-4.627-2.424 4.409 4.409 0 0 1-.992-2.5 7.341 7.341 0 0 1-.037-1.8 5.709 5.709 0 0 1 1.763-3.489 8.967 8.967 0 0 1 4.627-2.13 16.675 16.675 0 0 1 5.729.037 12.521 12.521 0 0 1 4.517 1.579c.331.184.4.367.184.734-.514.918-.992 1.873-1.506 2.791a.526.526 0 0 1-.183.407z" data-name="Path 29" transform="translate(-101.6 -257.73)"/>
            <path id="Path_30" d="M411.118 265.9a11.018 11.018 0 1 0 11.018 11.018 11 11 0 0 0-11.018-11.018zm0 18a6.941 6.941 0 1 1 6.941-6.941 6.936 6.936 0 0 1-6.941 6.941z" data-name="Path 30" transform="translate(-290.474 -257.747)"/>
            <path id="Path_31" d="M342.912 251.853a10.958 10.958 0 0 0-6.794 2.35V243.7H331.6v30.225h4.517v-2.35a11.028 11.028 0 1 0 6.794-19.722zm0 18a6.969 6.969 0 0 1-6.794-5.472V261.4a6.949 6.949 0 1 1 6.794 8.447z" data-name="Path 31" transform="translate(-247.131 -243.7)"/>
            <path id="Path_32" d="M524.218 283.959a6.941 6.941 0 1 1 5.8-10.724l3.415-2.24a11.026 11.026 0 1 0 .037 11.973l-3.452-2.13a6.972 6.972 0 0 1-5.8 3.121z" data-name="Path 32" transform="translate(-362.037 -257.81)"/>
        </g>
        <path id="Subtraction_6" d="M20.824 48a20.575 20.575 0 0 1-8.088-1.643A21.006 21.006 0 0 1 1.642 35.263 20.6 20.6 0 0 1 0 27.176V0h41.683v27.176a20.51 20.51 0 0 1-1.647 8.087 21.057 21.057 0 0 1-11.119 11.094A20.612 20.612 0 0 1 20.824 48zM6.794 19.831v4.554c0 5.611 1.389 9.917 4.127 12.8a13.3 13.3 0 0 0 9.939 3.875 15.933 15.933 0 0 0 5.467-.9 11.713 11.713 0 0 0 4.473-2.879c2.739-2.847 4.127-7.186 4.127-12.9v-4.55H6.794zM31 6.059a3.93 3.93 0 1 0 3.929 3.929A3.934 3.934 0 0 0 31 6.059zM6.794 7.711v4.555h15.573V7.711H6.794zm14.067 29.565a9.227 9.227 0 0 1-6.744-2.517c-1.778-1.754-2.832-4.342-3.135-7.693-.073-.694 0-2.773 0-2.791h19.794a7.82 7.82 0 0 0-.006.788v.065c.005.646.013 1.532-.029 1.939-.3 3.35-1.358 5.939-3.136 7.693a9.221 9.221 0 0 1-6.744 2.516z" class="cls-1" data-name="Subtraction 6" transform="translate(277.846 225.001)"/>
    </g>
</svg>
