<svg xmlns="http://www.w3.org/2000/svg" viewBox="0 0 120 69.172">
    <defs>
        <style>
            .cls-1{fill:#c0241f}
        </style>
    </defs>
    <g id="Group_360" data-name="Group 360" transform="translate(-59 -26)">
        <g id="Asset_1" data-name="Asset 1" transform="translate(78 26)">
            <g id="Layer_1" data-name="Layer 1" transform="translate(0 14.732)">
                <path id="Path_1725" d="M48.393 212.153a15.239 15.239 0 1 1-26.78 0A136.94 136.94 0 0 0 0 215.411c5.928-3.356 14.479-5.832 24.358-6.879 2.206-.235 4.479-.4 6.8-.482a12.012 12.012 0 1 0 7.677 0c2.325.084 4.6.246 6.8.482 9.882 1.047 18.433 3.523 24.358 6.879a136.761 136.761 0 0 0-21.6-3.258z" class="cls-1" data-name="Path 1725" transform="translate(0 -208.05)"/>
            </g>
            <g id="Layer_2" data-name="Layer 2" transform="translate(44.363 2.99)">
                <circle id="Ellipse_18" cx="4.327" cy="4.327" r="4.327" class="cls-1" data-name="Ellipse 18"/>
            </g>
            <g id="Layer_3" data-name="Layer 3" transform="translate(30.676)">
                <circle id="Ellipse_19" cx="4.327" cy="4.327" r="4.327" class="cls-1" data-name="Ellipse 19"/>
            </g>
            <g id="Layer_4" data-name="Layer 4" transform="translate(16.99 2.99)">
                <circle id="Ellipse_20" cx="4.327" cy="4.327" r="4.327" class="cls-1" data-name="Ellipse 20"/>
            </g>
            <g id="Layer_5" data-name="Layer 5" transform="translate(26.181 17.3)">
                <path id="Path_1726" d="M378.571 244.32a8.821 8.821 0 1 0 8.821 8.82 8.821 8.821 0 0 0-8.821-8.82zm0 11.683a2.859 2.859 0 1 1 2.861-2.86 2.859 2.859 0 0 1-2.861 2.86zm3.84 3.106a1.594 1.594 0 1 1 1.125-.469 1.591 1.591 0 0 1-1.125.469z" class="cls-1" data-name="Path 1726" transform="translate(-369.75 -244.32)"/>
            </g>
        </g>
        <g id="Asset_2" data-name="Asset 2" transform="translate(59 83)">
            <g id="Layer_6" data-name="Layer 6">
                <path id="Path_1727" d="M8.16 3.856a3.866 3.866 0 0 1-1.052 2.82 3.754 3.754 0 0 1-2.79 1.088h-1.4v4.181H0V0h4.3a3.793 3.793 0 0 1 2.834 1.041A3.849 3.849 0 0 1 8.16 3.856zM3.908 2.509h-.989v2.747h.956a1.205 1.205 0 0 0 .964-.383 1.494 1.494 0 0 0 .333-1.016 1.4 1.4 0 0 0-.333-.98 1.189 1.189 0 0 0-.931-.367z" data-name="Path 1727"/>
                <path id="Path_1728" d="M75.5 28.733a2.7 2.7 0 0 1 .947-2.159 3.773 3.773 0 0 1 2.535-.811 4.388 4.388 0 0 1 1.723.325v-.325a.854.854 0 0 0-.35-.7 1.625 1.625 0 0 0-1.015-.272 5.134 5.134 0 0 0-2.253.563l-1.058-1.911a6.475 6.475 0 0 1 3.652-1.113 3.9 3.9 0 0 1 3.02.964 3.884 3.884 0 0 1 .853 2.671v5.55h-2.542l-.153-.495a2.746 2.746 0 0 1-2.03.716 3.573 3.573 0 0 1-2.364-.8 2.714 2.714 0 0 1-.965-2.203zm3.191-.794a.835.835 0 0 0-.341.691.788.788 0 0 0 .341.674 1.658 1.658 0 0 0 1.731.009.785.785 0 0 0 .333-.682.828.828 0 0 0-.341-.7 1.412 1.412 0 0 0-.865-.256 1.36 1.36 0 0 0-.858.264z" data-name="Path 1728" transform="translate(-66.166 -19.569)"/>
                <path id="Path_1729" d="M162.511 31.535v-5.341a1.291 1.291 0 0 0-.325-.947 1.136 1.136 0 0 0-.853-.334 1.156 1.156 0 0 0-.9.359 1.323 1.323 0 0 0-.325.922v5.341h-2.848v-8.959h2.782v.924a2.448 2.448 0 0 1 .888-.8 2.7 2.7 0 0 1 1.36-.341 3.284 3.284 0 0 1 1.391.273 2.432 2.432 0 0 1 .9.671 2.99 2.99 0 0 1 .495 1.006 6.137 6.137 0 0 1 .23 1.113 11.329 11.329 0 0 1 .052 1.151v4.966z" data-name="Path 1729" transform="translate(-137.817 -19.589)"/>
                <path id="Path_1730" d="M238.283 8.83v1.9h1.517v2.3h-1.518v3.294q0 .972 1.113.973a3.806 3.806 0 0 0 .477-.017v2.441a4.43 4.43 0 0 1-1.092.1 3.368 3.368 0 0 1-2.5-.853 3.859 3.859 0 0 1-.846-2.782v-3.157h-.865v-2.3h.865V8.83z" data-name="Path 1730" transform="translate(-205.569 -7.738)"/>
                <path id="Path_1731" d="M288.47 28.733a2.7 2.7 0 0 1 .947-2.159 3.773 3.773 0 0 1 2.534-.811 4.388 4.388 0 0 1 1.724.325v-.325a.852.852 0 0 0-.35-.7 1.624 1.624 0 0 0-1.015-.272 5.139 5.139 0 0 0-2.253.563L289 23.442a6.475 6.475 0 0 1 3.652-1.113 3.9 3.9 0 0 1 3.02.964 3.9 3.9 0 0 1 .853 2.671v5.55h-2.542l-.155-.495a2.746 2.746 0 0 1-2.03.716 3.573 3.573 0 0 1-2.364-.8 2.714 2.714 0 0 1-.964-2.202zm3.191-.794a.834.834 0 0 0-.341.691.787.787 0 0 0 .341.674 1.658 1.658 0 0 0 1.731.009.787.787 0 0 0 .334-.682.828.828 0 0 0-.341-.7 1.414 1.414 0 0 0-.865-.256 1.36 1.36 0 0 0-.858.265z" data-name="Path 1731" transform="translate(-252.805 -19.569)"/>
                <path id="Path_1732" d="M372.513 24.16v5.34a1.291 1.291 0 0 0 .325.947 1.136 1.136 0 0 0 .853.333 1.158 1.158 0 0 0 .9-.359 1.321 1.321 0 0 0 .325-.921v-5.34h2.85v8.959h-2.782V32.2a2.473 2.473 0 0 1-.888.8 2.7 2.7 0 0 1-1.36.341 3.28 3.28 0 0 1-1.391-.272 2.41 2.41 0 0 1-.905-.675 2.98 2.98 0 0 1-.495-1.006 6.046 6.046 0 0 1-.23-1.113 11.358 11.358 0 0 1-.052-1.152V24.16z" data-name="Path 1732" transform="translate(-323.964 -21.173)"/>
                <path id="Path_1733" d="M457.14 11.946V0h3.123a3.356 3.356 0 0 1 2.372.853 2.844 2.844 0 0 1 .916 2.2 2.856 2.856 0 0 1-.453 1.586 2.843 2.843 0 0 1-1.146 1.046 2.953 2.953 0 0 1 1.45 1.084 3.046 3.046 0 0 1 .563 1.835 3.215 3.215 0 0 1-.98 2.371 3.338 3.338 0 0 1-2.449.973zm.865-6.622h2.355a2.217 2.217 0 0 0 2.287-2.269 2.188 2.188 0 0 0-.64-1.607 2.225 2.225 0 0 0-1.647-.639h-2.35zm0 5.837h2.258a2.951 2.951 0 0 0 2.023-.682 2.355 2.355 0 0 0 .771-1.877 2.246 2.246 0 0 0-.794-1.843 3.118 3.118 0 0 0-2.04-.649h-2.213z" data-name="Path 1733" transform="translate(-400.622)"/>
                <path id="Path_1734" d="M528 27.854a4.645 4.645 0 0 1 1.254-3.388 4.055 4.055 0 0 1 3.013-1.288 3.906 3.906 0 0 1 3.021 1.245 4.535 4.535 0 0 1 1.144 3.192v.362h-7.542a3.672 3.672 0 0 0 1 2.731 3.89 3.89 0 0 0 5.675-.529l.555.394a3.954 3.954 0 0 1-3.618 1.91 4.363 4.363 0 0 1-3.243-1.28A4.531 4.531 0 0 1 528 27.854zm.938-.632h6.6a3.279 3.279 0 0 0-1.008-2.423 3.313 3.313 0 0 0-2.286-.836 3.25 3.25 0 0 0-2.235.853 3.421 3.421 0 0 0-1.081 2.407z" data-name="Path 1734" transform="translate(-462.72 -20.312)"/>
                <path id="Path_1735" d="M619.183 23.185v.842a2.3 2.3 0 0 0-2.091.989 4.653 4.653 0 0 0-.639 2.572v4.676h-.853v-8.855h.853v1.585a2.478 2.478 0 0 1 .972-1.262 2.9 2.9 0 0 1 1.758-.547z" data-name="Path 1735" transform="translate(-539.49 -20.318)"/>
                <path id="Path_1736" d="M657.69 30.5l.734-.291a2.342 2.342 0 0 0 2.287 1.553 2.063 2.063 0 0 0 1.36-.469 1.552 1.552 0 0 0 .563-1.255 1.443 1.443 0 0 0-.469-1.092 3.539 3.539 0 0 0-1.144-.708q-.675-.265-1.349-.546a3.028 3.028 0 0 1-1.142-.827 1.99 1.99 0 0 1-.47-1.349 2.05 2.05 0 0 1 .75-1.663 2.885 2.885 0 0 1 1.9-.618 2.629 2.629 0 0 1 1.757.546A2.472 2.472 0 0 1 663.3 25l-.7.272a1.988 1.988 0 0 0-1.963-1.28 1.9 1.9 0 0 0-1.245.4 1.32 1.32 0 0 0-.495 1.083 1.36 1.36 0 0 0 .341.921 2.186 2.186 0 0 0 .846.6q.5.205 1.1.47t1.1.529a2.275 2.275 0 0 1 .849.781 2.216 2.216 0 0 1 .341 1.236 2.326 2.326 0 0 1-.794 1.817 2.894 2.894 0 0 1-2.005.707 2.983 2.983 0 0 1-2.985-2.036z" data-name="Path 1736" transform="translate(-576.377 -20.367)"/>
                <path id="Path_1737" d="M719 29.528a2.612 2.612 0 0 1 .964-2.082 3.632 3.632 0 0 1 2.431-.818 3.858 3.858 0 0 1 1.519.289 2.918 2.918 0 0 1 1.02.666v-1.352a2.169 2.169 0 0 0-.656-1.689 2.518 2.518 0 0 0-1.767-.6 5.213 5.213 0 0 0-2.73.818l-.358-.665a5.725 5.725 0 0 1 3.14-.938 2.882 2.882 0 0 1 3.224 3.123v5.959h-.7l-.153-.836a3.2 3.2 0 0 1-2.543 1.057 3.547 3.547 0 0 1-2.439-.844 2.676 2.676 0 0 1-.952-2.088zm.865 0a1.958 1.958 0 0 0 .711 1.524 2.733 2.733 0 0 0 1.868.618 2.688 2.688 0 0 0 1.826-.618 1.945 1.945 0 0 0 .717-1.537 1.9 1.9 0 0 0-.7-1.536 2.808 2.808 0 0 0-1.855-.58 2.771 2.771 0 0 0-1.854.6 1.906 1.906 0 0 0-.717 1.529z" data-name="Path 1737" transform="translate(-630.103 -20.297)"/>
                <path id="Path_1738" d="M809.632 26.558v5.7h-.853v-5.341q0-2.952-2.3-2.952a2.366 2.366 0 0 0-1.835.776 3.136 3.136 0 0 0-.708 2.192v5.325h-.853v-5.687a2.744 2.744 0 0 0-.632-1.911 2.19 2.19 0 0 0-1.706-.7 2.31 2.31 0 0 0-1.775.81 3 3 0 0 0-.733 2.091v5.4h-.853V23.4h.853v1.4a2.663 2.663 0 0 1 1.006-1.144 2.836 2.836 0 0 1 1.607-.477 3.145 3.145 0 0 1 1.766.477 2.616 2.616 0 0 1 1.026 1.3 2.739 2.739 0 0 1 1.152-1.322 3.475 3.475 0 0 1 1.783-.452 2.81 2.81 0 0 1 2.245.938 3.609 3.609 0 0 1 .81 2.438z" data-name="Path 1738" transform="translate(-698.796 -20.312)"/>
                <path id="Path_1739" d="M915.666 29.555a2.613 2.613 0 0 1 .963-2.082 3.636 3.636 0 0 1 2.432-.818 3.858 3.858 0 0 1 1.52.289 2.918 2.918 0 0 1 1.024.666v-1.353a2.169 2.169 0 0 0-.656-1.689 2.5 2.5 0 0 0-1.767-.593 5.208 5.208 0 0 0-2.73.818l-.359-.665a5.722 5.722 0 0 1 3.139-.938 2.883 2.883 0 0 1 3.226 3.123v5.955h-.7l-.153-.836a3.2 3.2 0 0 1-2.543 1.057 3.548 3.548 0 0 1-2.439-.844 2.676 2.676 0 0 1-.956-2.091zm.865 0a1.958 1.958 0 0 0 .712 1.524 2.741 2.741 0 0 0 1.869.618 2.689 2.689 0 0 0 1.826-.618 1.944 1.944 0 0 0 .716-1.537 1.894 1.894 0 0 0-.7-1.536 2.8 2.8 0 0 0-1.854-.58 2.768 2.768 0 0 0-1.854.6 1.909 1.909 0 0 0-.711 1.531z" data-name="Path 1739" transform="translate(-802.457 -20.323)"/>
            </g>
        </g>
    </g>
</svg>
